<?xml version="1.0" encoding="UTF-8"?>
<svg version="1.1" xmlns="http://www.w3.org/2000/svg" width="225" height="225">
<path d="M0 0 C74.25 0 148.5 0 225 0 C225 74.25 225 148.5 225 225 C150.75 225 76.5 225 0 225 C0 150.75 0 76.5 0 0 Z " fill="#282223" transform="translate(0,0)"/>
<path d="M0 0 C6.26893949 3.67534498 10.38063709 9.35158062 12.87890625 16.1015625 C12.87890625 16.7615625 12.87890625 17.4215625 12.87890625 18.1015625 C15.96306282 17.45543685 15.96306282 17.45543685 16.87109375 15.24609375 C17.16242188 14.47652344 17.45375 13.70695312 17.75390625 12.9140625 C20.36516756 6.66887861 23.61623026 2.15260978 29.87890625 -0.8984375 C35.8752905 -2.69104079 42.35649033 -2.93352466 48.12890625 -0.3359375 C54.96071161 3.61132782 58.26772618 8.92284489 60.43359375 16.37890625 C60.58054687 16.94738281 60.7275 17.51585938 60.87890625 18.1015625 C61.86890625 18.1015625 62.85890625 18.1015625 63.87890625 18.1015625 C64.15734375 16.895 64.15734375 16.895 64.44140625 15.6640625 C67.32056961 8.52874461 72.12008073 2.7881946 78.87890625 -0.8984375 C85.05340379 -2.95660335 91.58387393 -2.36429284 97.6640625 -0.15234375 C102.71629305 2.70791376 107.04485069 7.59939583 108.87890625 13.1015625 C110.82791456 28.41232885 104.77640251 40.50906748 95.71875 52.5859375 C93.90703911 55.06309634 92.26594503 57.61511881 90.64208984 60.21826172 C77.04566875 81.96903575 77.04566875 81.96903575 67.87890625 85.1015625 C62.66775529 85.92045765 58.44636198 85.82500361 53.62890625 83.6015625 C46.58596417 77.19888788 41.46968588 69.76116804 36.44140625 61.7265625 C35.48717773 60.23189453 35.48717773 60.23189453 34.51367188 58.70703125 C29.87890625 51.3690672 29.87890625 51.3690672 29.87890625 49.1015625 C28.88890625 49.1015625 27.89890625 49.1015625 26.87890625 49.1015625 C27.02328125 49.64941406 27.16765625 50.19726562 27.31640625 50.76171875 C29.37679068 59.56127727 31.14714798 70.78433802 26.87890625 79.1015625 C21.63168509 84.87350577 21.63168509 84.87350577 17.77734375 85.375 C11.04135664 85.64610784 6.9909945 84.52065647 1.87890625 80.1015625 C-5.29086557 73.3105218 -10.59193861 65.29013141 -15.88037109 57.02734375 C-17.09429424 55.14315922 -18.33197637 53.27705221 -19.578125 51.4140625 C-27.82124256 39.00385339 -33.36008582 28.33083998 -32.12109375 13.1015625 C-30.19603759 6.93929034 -25.42694502 2.41273283 -19.93359375 -0.7109375 C-13.21306239 -2.80421776 -6.52726808 -2.82188963 0 0 Z " fill="#FCE313" transform="translate(74.12109375,74.8984375)"/>
<path d="M0 0 C1.32 0.66 2.64 1.32 4 2 C-8.72433518 19.90438813 -8.72433518 19.90438813 -17.796875 21.48828125 C-23.69627259 21.76730681 -27.45380829 21.00497841 -32 17 C-34.875 14.375 -34.875 14.375 -37 12 C-37 11.34 -37 10.68 -37 10 C-35.68 10 -34.36 10 -33 10 C-33 10.66 -33 11.32 -33 12 C-32.34 12 -31.68 12 -31 12 C-30.67 11.34 -30.34 10.68 -30 10 C-30 10.99 -30 11.98 -30 13 C-28.68 13.33 -27.36 13.66 -26 14 C-26.33 15.65 -26.66 17.3 -27 19 C-24.13275314 18.42655063 -23.1385485 18.1385485 -21 16 C-17.875 15.875 -17.875 15.875 -15 16 C-15 15.67 -15 15.34 -15 15 C-13.35 15 -11.7 15 -10 15 C-9.67 13.68 -9.34 12.36 -9 11 C-9 11.99 -9 12.98 -9 14 C-8.34 14 -7.68 14 -7 14 C-6.34 11.69 -5.68 9.38 -5 7 C-4.01 7.33 -3.02 7.66 -2 8 C-2.495 6.515 -2.495 6.515 -3 5 C-2.34 5 -1.68 5 -1 5 C-0.67 3.35 -0.34 1.7 0 0 Z " fill="#E7D62A" transform="translate(157,139)"/>
<path d="M0 0 C3.49338758 5.24008136 3.09834787 11.92709598 2 18 C0.06070373 23.98198311 -2.80549573 29.59885021 -6 35 C-6.99 35.495 -6.99 35.495 -8 36 C-7.67 33.69 -7.34 31.38 -7 29 C-6.01 28.67 -5.02 28.34 -4 28 C-4.226875 27.46375 -4.45375 26.9275 -4.6875 26.375 C-5.13958145 22.93918099 -3.67178015 20.94233306 -2 18 C-1.34 18 -0.68 18 0 18 C0 17.01 0 16.02 0 15 C-0.66 15 -1.32 15 -2 15 C-1.855625 14.46375 -1.71125 13.9275 -1.5625 13.375 C-0.4994318 8.88648982 0.13583514 4.61839468 0 0 Z " fill="#E8D72E" transform="translate(181,85)"/>
<path d="M0 0 C0.99 0 1.98 0 3 0 C4.41040039 1.78833008 4.41040039 1.78833008 5.84765625 4.26953125 C6.63172852 5.60274414 6.63172852 5.60274414 7.43164062 6.96289062 C7.96982422 7.90326172 8.50800781 8.84363281 9.0625 9.8125 C10.13638715 11.65253732 11.2105926 13.49238892 12.28515625 15.33203125 C12.75832275 16.15421143 13.23148926 16.9763916 13.71899414 17.82348633 C14.75521297 19.58409065 15.866798 21.300197 17 23 C13.13322435 21.533292 11.99014441 19.52798328 10 16 C9.34 15.67 8.68 15.34 8 15 C7.33333333 13 6.66666667 11 6 9 C5.34 8.67 4.68 8.34 4 8 C3.67 9.98 3.34 11.96 3 14 C1.20724134 10.88089144 0.65709282 8.32317572 0.375 4.75 C0.30023438 3.85796875 0.22546875 2.9659375 0.1484375 2.046875 C0.09945312 1.37140625 0.05046875 0.6959375 0 0 Z " fill="#32270D" transform="translate(101,124)"/>
<path d="M0 0 C0.99 0 1.98 0 3 0 C3 0.66 3 1.32 3 2 C2.01 1.67 1.02 1.34 0 1 C0 0.67 0 0.34 0 0 Z M0 2 C-0.66 2 -1.32 2 -2 2 C-2 3.65 -2 5.3 -2 7 C-2.66 5.68 -3.32 4.36 -4 3 C-4.99 3 -5.98 3 -7 3 C-6.855625 3.54785156 -6.71125 4.09570312 -6.5625 4.66015625 C-4.51589989 13.4008442 -2.67414493 24.75955072 -7 33 C-7.99 33.495 -7.99 33.495 -9 34 C-8.67 31.69 -8.34 29.38 -8 27 C-7.34 27 -6.68 27 -6 27 C-6.144375 26.28457031 -6.28875 25.56914062 -6.4375 24.83203125 C-7.86986796 17.14300048 -8.2267563 9.81049489 -8 2 C-4.90279155 1.12159004 -3.09354597 1.00564594 0 2 Z " fill="#EBD92D" transform="translate(108,121)"/>
<path d="M0 0 C1.32 0 2.64 0 4 0 C4 0.66 4 1.32 4 2 C4.66 2 5.32 2 6 2 C6.33 1.34 6.66 0.68 7 0 C7 0.99 7 1.98 7 3 C8.32 3.33 9.64 3.66 11 4 C10.67 5.65 10.34 7.3 10 9 C12.86724686 8.42655063 13.8614515 8.1385485 16 6 C17.32 6.66 18.64 7.32 20 8 C16.88516153 10.07655898 14.92755541 10.59240843 11.203125 10.5234375 C6.89843503 9.50069201 3.81973741 6.28383385 1 3 C0.67 2.01 0.34 1.02 0 0 Z " fill="#EEDA27" transform="translate(120,149)"/>
<path d="M0 0 C-5.94 0.495 -5.94 0.495 -12 1 C-12 2.32 -12 3.64 -12 5 C-13.65 5 -15.3 5 -17 5 C-16.34 4.34 -15.68 3.68 -15 3 C-18.76624671 1.74458443 -20.37188934 2.62938042 -24 4 C-18.15074574 -3.22554938 -7.81334961 -3.9066748 0 0 Z " fill="#DDCC28" transform="translate(72,75)"/>
<path d="M0 0 C5.18218631 2.3220181 8.43520369 5.8355635 11.78125 10.34765625 C11.45125 11.00765625 11.12125 11.66765625 10.78125 12.34765625 C10.12125 11.02765625 9.46125 9.70765625 8.78125 8.34765625 C7.79125 8.34765625 6.80125 8.34765625 5.78125 8.34765625 C5.45125 7.35765625 5.12125 6.36765625 4.78125 5.34765625 C4.12125 5.01765625 3.46125 4.68765625 2.78125 4.34765625 C2.78125 5.00765625 2.78125 5.66765625 2.78125 6.34765625 C1.79125 6.01765625 0.80125 5.68765625 -0.21875 5.34765625 C-0.21875 4.35765625 -0.21875 3.36765625 -0.21875 2.34765625 C-5.49875 2.01765625 -10.77875 1.68765625 -16.21875 1.34765625 C-10.82713268 -1.34815241 -5.83995945 -1.71703033 0 0 Z " fill="#D1BF38" transform="translate(120.21875,73.65234375)"/>
<path d="M0 0 C0.66 0 1.32 0 2 0 C2 0.66 2 1.32 2 2 C3.32 1.67 4.64 1.34 6 1 C5.67 2.32 5.34 3.64 5 5 C5.66 5.33 6.32 5.66 7 6 C8.125 8.0625 8.125 8.0625 9 10 C9.66 10 10.32 10 11 10 C11.33 9.34 11.66 8.68 12 8 C12 8.66 12 9.32 12 10 C12.99 10.33 13.98 10.66 15 11 C14.67 11.99 14.34 12.98 14 14 C14.66 14 15.32 14 16 14 C16 14.66 16 15.32 16 16 C11.32289513 14.57836201 8.96231478 12.18356741 5.75 8.5625 C4.87859375 7.59441406 4.0071875 6.62632812 3.109375 5.62890625 C1 3 1 3 0 0 Z " fill="#E3D133" transform="translate(66,142)"/>
<path d="M0 0 C1.9375 1.5625 1.9375 1.5625 3 3 C1.68 2.67 0.36 2.34 -1 2 C-0.67 2.99 -0.34 3.98 0 5 C-4.29 4.01 -8.58 3.02 -13 2 C-7.65179552 -0.67410224 -5.94256468 -1.25106625 0 0 Z " fill="#F0D91F" transform="translate(172,75)"/>
<path d="M0 0 C1.65 0 3.3 0 5 0 C5.66 2.64 6.32 5.28 7 8 C7.33 8 7.66 8 8 8 C8 9.65 8 11.3 8 13 C0 3.28571429 0 3.28571429 0 0 Z " fill="#E7D62B" transform="translate(48,114)"/>
<path d="M0 0 C1.32 0.33 2.64 0.66 4 1 C2.125 6.75 2.125 6.75 1 9 C0.01 9 -0.98 9 -2 9 C-2.66 7.02 -3.32 5.04 -4 3 C-2.68 2.67 -1.36 2.34 0 2 C0 1.34 0 0.68 0 0 Z " fill="#312615" transform="translate(137,84)"/>
<path d="M0 0 C0.33 0.66 0.66 1.32 1 2 C-0.21484375 4.8203125 -0.21484375 4.8203125 -1.9375 8.125 C-2.50339844 9.22070312 -3.06929687 10.31640625 -3.65234375 11.4453125 C-4.09707031 12.28835937 -4.54179687 13.13140625 -5 14 C-5.66 14 -6.32 14 -7 14 C-7.66 15.32 -8.32 16.64 -9 18 C-9.66 17.67 -10.32 17.34 -11 17 C-5.555 8.585 -5.555 8.585 0 0 Z " fill="#3D2D0E" transform="translate(173,121)"/>
<path d="M0 0 C0 0.33 0 0.66 0 1 C-3.3 1.66 -6.6 2.32 -10 3 C-10 3.99 -10 4.98 -10 6 C-13 6 -16 6 -19 6 C-12.65253228 0.55931338 -8.14040875 -0.31923172 0 0 Z " fill="#D7C631" transform="translate(165,73)"/>
<path d="M0 0 C3 3.75 3 3.75 3 6 C6.27773504 5.24849977 6.27773504 5.24849977 8 2 C8 3.65 8 5.3 8 7 C6.54207116 7.05399736 5.08357288 7.09279177 3.625 7.125 C2.81289062 7.14820312 2.00078125 7.17140625 1.1640625 7.1953125 C-1 7 -1 7 -3 5 C-2.01 3.35 -1.02 1.7 0 0 Z " fill="#ECD92C" transform="translate(84,87)"/>
<path d="M0 0 C3 1 3 1 4 3 C4.66 2.01 5.32 1.02 6 0 C6 0.66 6 1.32 6 2 C6.66 2 7.32 2 8 2 C7.34 3.98 6.68 5.96 6 8 C5.01 8 4.02 8 3 8 C0 2.25 0 2.25 0 0 Z " fill="#372B15" transform="translate(84,85)"/>
<path d="M0 0 C3.06813137 4.60219706 2.25317679 9.22776249 1.5 14.5 C1.2525 15.7375 1.2525 15.7375 1 17 C0.67 16.34 0.34 15.68 0 15 C-0.66 15 -1.32 15 -2 15 C-1.855625 14.46375 -1.71125 13.9275 -1.5625 13.375 C-0.4994318 8.88648982 0.13583514 4.61839468 0 0 Z " fill="#F1DD23" transform="translate(181,85)"/>
<path d="M0 0 C1.74627478 2.61941217 2.38722388 4.03824877 3 7 C3.99 7 4.98 7 6 7 C6.66 5.68 7.32 4.36 8 3 C8.33 4.98 8.66 6.96 9 9 C7 10 7 10 3.875 9.0625 C2.92625 8.711875 1.9775 8.36125 1 8 C0.67 5.36 0.34 2.72 0 0 Z " fill="#E6D337" transform="translate(132,86)"/>
<path d="M0 0 C2.125 0.375 2.125 0.375 4 1 C3.01 3.31 2.02 5.62 1 8 C0.34 8 -0.32 8 -1 8 C-1.625 5.125 -1.625 5.125 -2 2 C-1.34 1.34 -0.68 0.68 0 0 Z " fill="#2F271C" transform="translate(42,80)"/>
<path d="M0 0 C2.912575 0.08566397 4.56798024 0.57910955 6.66796875 2.625 C8.16091772 4.38391375 9.60436262 6.16313019 11 8 C10.67 8.66 10.34 9.32 10 10 C9.34 8.68 8.68 7.36 8 6 C7.01 6 6.02 6 5 6 C4.67 5.01 4.34 4.02 4 3 C3.34 2.67 2.68 2.34 2 2 C2 2.66 2 3.32 2 4 C1.01 3.67 0.02 3.34 -1 3 C-0.67 2.01 -0.34 1.02 0 0 Z " fill="#ECD93A" transform="translate(121,76)"/>
<path d="M0 0 C0.66 0.66 1.32 1.32 2 2 C1.01 2.495 1.01 2.495 0 3 C0.33 3.66 0.66 4.32 1 5 C-0.051875 4.835 -1.10375 4.67 -2.1875 4.5 C-5.20468796 4.10430322 -7.97093972 3.90821029 -11 4 C-8.78280599 -0.43438801 -4.51744119 -0.39282097 0 0 Z " fill="#F6E022" transform="translate(74,75)"/>
<path d="M0 0 C0.33 0 0.66 0 1 0 C1.33 3.96 1.66 7.92 2 12 C-3.57142857 6.85714286 -3.57142857 6.85714286 -4 3 C-3.01 3.33 -2.02 3.66 -1 4 C-0.67 2.68 -0.34 1.36 0 0 Z " fill="#EBDB2E" transform="translate(118,137)"/>
<path d="M0 0 C1.98 0 3.96 0 6 0 C7.42258812 3.82320557 8.24042276 6.91281305 8 11 C5.25498003 7.38813161 2.62987986 3.69604737 0 0 Z " fill="#3E3214" transform="translate(175,77)"/>
<path d="M0 0 C1 4 1 4 1 7 C0.34 7 -0.32 7 -1 7 C-1 8.65 -1 10.3 -1 12 C-2.32 11.67 -3.64 11.34 -5 11 C-3.35 7.37 -1.7 3.74 0 0 Z " fill="#3E2D13" transform="translate(181,105)"/>
<path d="M0 0 C2.67710191 1.33855096 2.95129094 2.72058088 4.125 5.4375 C4.47820313 6.24058594 4.83140625 7.04367188 5.1953125 7.87109375 C6 10 6 10 6 12 C5.34 12 4.68 12 4 12 C3.67 10.68 3.34 9.36 3 8 C2.34 8 1.68 8 1 8 C0.67 5.36 0.34 2.72 0 0 Z " fill="#3C2D0F" transform="translate(42,104)"/>
<path d="M0 0 C2.97 1.65 5.94 3.3 9 5 C5.65820721 6.11393093 4.35008877 5.75376997 1 5 C0.01 5 -0.98 5 -2 5 C-1.34 3.35 -0.68 1.7 0 0 Z " fill="#302413" transform="translate(75,154)"/>
<path d="M0 0 C0.33 0.66 0.66 1.32 1 2 C1.99 2.33 2.98 2.66 4 3 C3.67 3.99 3.34 4.98 3 6 C3.66 6 4.32 6 5 6 C5 6.66 5 7.32 5 8 C2.5625 7.1875 2.5625 7.1875 0 6 C-1 3 -1 3 0 0 Z " fill="#E9D722" transform="translate(77,150)"/>
<path d="M0 0 C0.99 0 1.98 0 3 0 C3 1.32 3 2.64 3 4 C3.99 4.33 4.98 4.66 6 5 C6.33 5.99 6.66 6.98 7 8 C6.01 8 5.02 8 4 8 C0 2.74285714 0 2.74285714 0 0 Z " fill="#E5D532" transform="translate(57,128)"/>
<path d="M0 0 C0.99 0.33 1.98 0.66 3 1 C2.34 3.64 1.68 6.28 1 9 C-1 6 -1 6 -0.625 2.8125 C-0.41875 1.884375 -0.2125 0.95625 0 0 Z " fill="#292329" transform="translate(105,132)"/>
<path d="M0 0 C0.99 0 1.98 0 3 0 C3.33 0.99 3.66 1.98 4 3 C3.34 3 2.68 3 2 3 C2 5.31 2 7.62 2 10 C1.67 10 1.34 10 1 10 C0.67 6.7 0.34 3.4 0 0 Z " fill="#4E3E15" transform="translate(101,124)"/>
<path d="M0 0 C1.65 0 3.3 0 5 0 C5.33 0.99 5.66 1.98 6 3 C4.35 3.33 2.7 3.66 1 4 C0.67 2.68 0.34 1.36 0 0 Z " fill="#F3DD25" transform="translate(48,114)"/>
<path d="M0 0 C0.66 0.66 1.32 1.32 2 2 C1 3 1 3 -2.4375 3.1875 C-6 3 -6 3 -8 1 C-1.9453125 0.0234375 -1.9453125 0.0234375 0 0 Z " fill="#FAE707" transform="translate(120,76)"/>
<path d="M0 0 C1.65 0.33 3.3 0.66 5 1 C3.9375 2.5 3.9375 2.5 2 4 C-1.6875 4.1875 -1.6875 4.1875 -5 4 C-4.360625 3.71125 -3.72125 3.4225 -3.0625 3.125 C-0.84793921 2.17176549 -0.84793921 2.17176549 0 0 Z " fill="#FBE527" transform="translate(135,155)"/>
</svg>
